<?xml version="1.0" encoding="UTF-8"?>
<svg width="200px" height="200px" viewBox="0 0 200 200" version="1.1" xmlns="http://www.w3.org/2000/svg" xmlns:xlink="http://www.w3.org/1999/xlink">
    <g stroke="none" stroke-width="1" fill="none" fill-rule="evenodd">
        <g>
            <rect stroke="#C9C9C9" x="0.5" y="0.5" width="199" height="199" rx="9"></rect>
            <path d="M68.5,50.5 C80.1338323,50.5 90.8205915,54.5957291 99.2219984,61.435497 L99.22,61.434 L98.8450043,61.7579074 C88.3610114,70.8969972 81.6752826,84.3604179 81.5033956,99.4053076 L81.5,100 C81.5,115.480459 88.3965345,129.333681 99.2569445,138.598563 L99.219,138.566 L98.7632223,138.933743 C90.5860051,145.429265 80.3108287,149.352856 69.1336271,149.495946 L68.5,149.5 C54.9695938,149.5 42.7203423,143.959933 33.8535399,135.003567 C24.9849279,126.045373 19.5,113.669627 19.5,100 C19.5,86.3303731 24.9849279,73.9546272 33.8535399,64.9964332 C42.7203423,56.0400672 54.9695938,50.5 68.5,50.5 Z M131.5,50.5 C145.030406,50.5 157.279658,56.0400672 166.14646,64.9964332 C175.015072,73.9546272 180.5,86.3303731 180.5,100 C180.5,113.669627 175.015072,126.045373 166.14646,135.003567 C157.279658,143.959933 145.030406,149.5 131.5,149.5 C119.868344,149.5 109.183416,145.405792 100.781695,138.565899 C111.619179,129.302109 118.5,115.46282 118.5,100 C118.5,84.536215 111.618319,70.6961674 100.782558,61.4330367 C109.184773,54.5936881 119.869083,50.5 131.5,50.5 Z" stroke="#BFBFBF" fill="#EAEAEA"></path>
            <text font-size="12" font-weight="normal" fill="#333333">
                <tspan x="58" y="101">A</tspan>
            </text>
            <text font-size="12" font-weight="normal" fill="#333333">
                <tspan x="134" y="101">B</tspan>
            </text>
            <text font-size="12" font-weight="normal" fill="#333333">
                <tspan x="177" y="26">U</tspan>
            </text>
            <text font-size="12" font-weight="normal" fill="#333333">
                <tspan x="82" y="182">A △ B</tspan>
            </text>
        </g>
    </g>
</svg>